<?xml version="1.0" standalone="no"?>
<!DOCTYPE svg PUBLIC "-//W3C//DTD SVG 20010904//EN"
 "http://www.w3.org/TR/2001/REC-SVG-20010904/DTD/svg10.dtd">
<svg version="1.0" xmlns="http://www.w3.org/2000/svg"
 width="2000.000000pt" height="345.000000pt" viewBox="0 0 2000.000000 345.000000"
 preserveAspectRatio="xMidYMid meet">

<g transform="translate(0.000000,345.000000) scale(0.100000,-0.100000)"
fill="#000000" stroke="none">
<path d="M0 3103 l0 -206 27 24 c16 13 61 56 102 95 l73 71 -93 91 -94 91 99
1 100 0 105 -102 c58 -56 153 -148 211 -203 237 -226 321 -306 448 -428 l133
-128 217 208 c209 200 330 316 569 546 l111 107 98 0 99 0 -93 -93 -93 -94 99
-91 c55 -51 104 -92 109 -92 4 0 51 43 103 96 l95 95 -95 89 -95 89 99 1 100
0 75 -72 c42 -40 175 -168 296 -284 289 -276 525 -499 529 -499 3 0 427 403
749 713 l149 142 94 0 c52 0 94 -2 94 -5 0 -4 -41 -45 -91 -92 l-90 -86 97
-91 c54 -50 103 -91 110 -91 13 0 194 172 194 185 0 4 -38 44 -85 88 -47 45
-85 84 -85 87 0 3 42 5 93 5 l92 0 60 -57 c100 -95 716 -682 780 -745 l60 -58
175 168 c96 93 299 286 450 430 l274 262 101 0 100 -1 -95 -89 -95 -89 99
-100 99 -100 104 97 104 97 -90 89 c-50 49 -91 90 -91 92 0 2 41 4 91 4 106 0
90 10 264 -159 61 -58 209 -200 330 -316 121 -115 261 -249 310 -297 l90 -87
45 41 c46 42 337 321 574 549 72 69 165 158 206 197 l75 71 100 0 100 0 -95
-90 -95 -90 97 -96 c53 -52 101 -93 107 -91 5 1 53 43 106 92 l97 89 -94 94
-93 93 98 0 98 0 327 -312 c180 -171 382 -365 450 -432 l123 -120 107 105 c59
58 156 153 217 210 122 116 283 271 455 437 l115 112 100 0 100 0 -93 -93 -94
-94 97 -89 c53 -49 101 -90 106 -92 5 -2 53 39 106 91 l98 96 -95 90 -95 90
99 1 100 0 85 -82 c48 -46 133 -128 191 -183 58 -55 200 -190 315 -301 116
-110 232 -221 260 -246 l49 -46 206 196 c270 259 381 365 520 499 180 174 163
163 269 163 50 0 91 -2 91 -4 0 -2 -41 -43 -90 -92 l-90 -88 102 -97 103 -98
100 100 100 100 -95 89 -95 89 100 0 100 1 70 -67 c39 -37 117 -112 175 -167
569 -545 642 -614 655 -614 6 0 89 75 185 167 96 92 296 283 445 424 l269 257
93 0 c51 0 93 -2 93 -5 0 -3 -38 -42 -85 -87 -47 -44 -85 -84 -85 -88 0 -13
181 -185 194 -185 7 0 56 41 110 91 l97 91 -90 86 c-50 47 -91 88 -91 92 0 3
42 5 94 5 l94 0 383 -366 c211 -202 413 -395 449 -430 l65 -63 60 56 c33 30
119 112 190 181 116 113 399 383 586 560 l66 62 99 0 99 -1 -95 -89 -95 -89
95 -95 c52 -53 99 -96 103 -96 5 0 54 41 109 92 l99 91 -93 94 -93 93 102 0
c71 0 104 -4 110 -12 4 -7 103 -103 218 -213 205 -195 340 -324 557 -534 l106
-103 129 124 c294 281 555 532 658 632 l110 105 100 0 100 0 -94 -91 -93 -91
73 -71 c41 -39 86 -82 102 -95 l27 -24 0 206 0 207 -10000 0 -10000 0 0 -207z
m674 110 c34 -32 144 -136 245 -233 101 -96 187 -175 191 -175 7 0 102 89 409
382 l86 82 100 0 100 0 -66 -62 c-36 -34 -191 -181 -343 -327 -153 -146 -282
-265 -286 -265 -4 0 -139 126 -300 280 -161 154 -316 301 -344 327 l-51 47 99
1 99 0 61 -57z m363 45 c5 -7 23 -26 40 -42 l33 -29 49 41 50 42 90 0 c50 0
91 -3 90 -7 -1 -10 -261 -256 -274 -260 -6 -2 -74 57 -150 131 l-140 135 102
0 c71 1 104 -3 110 -11z m1828 -15 c17 -15 128 -121 247 -236 l218 -209 43 39
c24 21 136 127 249 236 l205 197 99 0 99 0 -80 -77 c-44 -42 -130 -124 -190
-182 -133 -128 -313 -300 -378 -361 l-47 -44 -113 109 c-61 61 -171 166 -242
235 -223 214 -325 313 -325 316 0 2 42 4 93 4 86 0 94 -2 122 -27z m425 -18
l44 -45 46 45 46 45 97 0 98 0 -136 -132 c-76 -73 -142 -134 -149 -135 -6 -1
-74 58 -151 132 l-140 134 100 1 101 0 44 -45z m1998 -172 c125 -120 237 -226
249 -236 21 -19 22 -18 267 217 l246 236 98 0 97 0 -105 -102 c-137 -133 -273
-263 -443 -426 l-139 -133 -36 32 c-41 36 -400 378 -557 531 l-100 98 98 0 98
0 227 -217z m217 177 c21 -22 44 -40 50 -40 6 0 29 18 50 40 l39 40 101 0 100
0 -140 -135 c-77 -74 -144 -134 -150 -134 -5 0 -73 61 -150 135 l-140 134 101
0 100 0 39 -40z m1915 -91 c214 -206 351 -334 359 -334 5 0 98 86 207 191 110
105 219 210 244 232 l45 41 93 1 c50 0 92 -3 91 -7 -1 -8 -666 -646 -678 -651
-6 -2 -375 346 -621 585 l-75 73 100 -1 100 0 135 -130z m307 91 c25 -22 49
-40 52 -40 4 0 25 18 46 40 l39 40 101 0 100 -1 -140 -134 c-77 -74 -144 -135
-149 -135 -8 0 -268 248 -274 263 -2 4 38 7 88 7 l92 0 45 -40z m1853 -32 c41
-39 153 -145 247 -236 l173 -164 192 183 c106 101 218 207 248 236 l55 53 100
0 100 0 -55 -53 c-30 -28 -185 -176 -344 -327 -158 -151 -292 -275 -296 -275
-4 0 -133 119 -285 265 -153 146 -307 293 -344 327 l-66 62 100 0 100 0 75
-71z m371 31 l49 -40 40 33 c22 18 40 36 40 41 0 4 46 7 103 7 l102 -1 -139
-134 c-76 -74 -142 -135 -147 -135 -4 0 -70 61 -146 135 l-138 134 94 1 93 0
49 -41z m1818 -1 c25 -23 135 -128 245 -232 109 -105 201 -192 205 -193 3 -2
116 103 251 232 l245 234 98 1 c53 0 97 -1 97 -3 0 -7 -682 -652 -689 -652 -9
0 -674 633 -679 647 -2 4 38 8 89 8 l92 0 46 -42z m406 1 l45 -42 49 42 50 41
91 0 c50 0 90 -3 88 -7 -6 -15 -266 -263 -274 -263 -5 0 -72 61 -149 135
l-140 134 98 1 97 0 45 -41z m1892 -71 c65 -62 168 -162 230 -222 62 -60 121
-114 131 -122 22 -15 -1 -35 294 248 l216 209 98 -3 97 -3 -343 -327 c-300
-287 -345 -326 -360 -315 -18 13 -371 349 -560 534 l-115 113 98 0 97 0 117
-112z m333 67 l44 -45 46 45 46 45 99 0 100 0 -140 -134 c-77 -74 -144 -135
-150 -135 -5 0 -73 60 -150 134 l-140 135 100 0 101 0 44 -45z m1989 -162
c119 -114 231 -220 248 -237 l33 -30 107 105 c170 164 325 313 358 342 28 25
36 27 122 27 51 0 93 -2 93 -4 0 -2 -153 -151 -341 -331 l-341 -327 -36 34
c-21 19 -86 81 -147 139 -60 57 -159 151 -220 209 -60 58 -150 144 -200 192
l-90 88 99 0 99 0 216 -207z m231 162 l44 -45 46 45 46 45 99 0 100 -1 -140
-134 c-77 -74 -144 -134 -149 -135 -5 0 -52 42 -105 94 -53 51 -116 112 -141
135 l-45 41 100 0 101 0 44 -45z m1927 -102 c85 -82 197 -188 248 -236 l95
-88 247 235 248 236 98 0 99 0 -134 -128 c-407 -391 -551 -527 -558 -527 -4 0
-41 32 -82 70 -396 376 -608 579 -608 582 0 2 43 3 96 3 l97 0 154 -147z m294
105 l50 -42 42 42 43 42 99 -1 100 0 -140 -135 c-77 -73 -143 -134 -147 -134
-10 0 -275 252 -277 263 0 4 40 7 90 7 l90 0 50 -42z"/>
<path d="M148 2845 l-148 -143 0 -100 0 -99 53 -49 c71 -65 414 -393 562 -535
66 -64 136 -130 155 -147 l35 -31 -35 -36 c-19 -20 -200 -195 -402 -388 l-368
-351 0 -96 0 -97 102 -100 c121 -118 194 -185 203 -184 9 0 295 272 295 281 0
9 -177 184 -192 189 -10 4 -98 -77 -98 -91 0 -5 21 -28 47 -52 l47 -44 -49
-46 c-28 -25 -52 -45 -55 -46 -3 0 -48 43 -100 95 l-95 96 145 139 c80 76 149
139 154 140 5 0 61 -51 125 -113 64 -62 130 -125 148 -141 l32 -29 151 144
150 144 -100 100 -100 100 -51 -51 -51 -51 49 -46 48 -46 -45 -45 c-24 -26
-49 -46 -55 -46 -6 0 -52 42 -103 93 l-93 93 151 143 150 143 103 -99 c145
-141 191 -183 201 -183 4 0 73 63 153 140 l145 140 87 -79 c47 -44 115 -109
150 -144 l63 -65 -98 -95 -99 -96 -50 50 -50 50 48 41 c26 22 47 44 47 49 0 5
-21 29 -47 53 l-47 45 -55 -49 c-31 -27 -77 -70 -103 -97 l-47 -48 150 -143
150 -142 27 20 c15 12 70 63 122 113 52 51 110 105 127 121 l32 29 146 -138
c80 -76 145 -143 143 -150 -2 -6 -45 -51 -96 -100 l-93 -88 -44 43 c-25 25
-45 49 -45 55 0 6 21 28 46 49 l46 38 -48 49 c-27 27 -51 49 -54 49 -9 0 -200
-180 -200 -188 0 -4 67 -71 150 -150 l149 -143 113 109 c62 61 131 125 152
145 l40 35 149 -142 c82 -77 151 -140 154 -140 16 3 294 278 291 288 -4 15
-182 186 -194 186 -5 0 -30 -20 -54 -45 l-44 -45 49 -51 50 -50 -48 -45 -47
-45 -38 30 c-20 16 -66 59 -101 95 l-64 65 138 133 c75 73 144 137 151 141 10
6 56 -32 159 -130 80 -76 149 -139 153 -140 4 -1 75 62 157 142 l150 144 -30
27 c-16 15 -63 59 -102 98 l-73 70 -50 -49 -50 -49 45 -46 c25 -25 45 -50 44
-55 0 -6 -21 -27 -45 -49 l-44 -38 -47 40 c-27 22 -71 64 -100 94 l-52 53 149
143 150 144 153 -146 152 -145 105 102 c58 56 126 122 151 145 l46 43 128
-123 c70 -68 136 -129 146 -136 11 -7 19 -19 19 -26 0 -7 -44 -53 -98 -103
l-98 -90 -47 46 -47 47 45 44 c25 24 45 49 45 55 0 5 -21 29 -47 52 l-47 41
-98 -90 c-54 -50 -98 -94 -98 -97 0 -6 175 -180 262 -260 l37 -34 148 142 c81
77 150 141 154 141 3 0 73 -64 154 -142 l148 -143 -102 -94 -103 -94 -46 46
-46 47 48 49 49 50 -48 43 c-26 24 -51 43 -55 43 -12 0 -201 -177 -198 -186 2
-4 70 -71 151 -148 l149 -141 151 144 151 145 151 -144 151 -143 34 31 c19 16
88 82 153 145 l119 115 -99 93 c-54 51 -100 93 -103 93 -3 0 -27 -20 -55 -44
l-50 -44 50 -51 49 -50 -46 -47 -47 -46 -89 81 c-49 45 -94 88 -101 95 -9 11
18 43 135 156 80 78 149 141 154 139 5 -2 73 -64 151 -138 78 -74 146 -135
151 -135 10 0 298 274 298 284 0 3 -45 48 -99 99 l-99 92 -52 -47 -51 -46 51
-52 51 -52 -45 -41 c-25 -23 -49 -42 -52 -42 -13 0 -194 172 -194 185 0 6 15
24 33 39 17 15 83 77 145 138 l113 112 57 -55 c31 -31 100 -96 152 -146 l94
-91 153 145 153 145 150 -144 151 -143 -97 -93 c-54 -50 -100 -92 -103 -92 -3
0 -28 19 -54 41 l-49 42 51 51 51 52 -50 49 -50 49 -63 -60 c-34 -33 -80 -77
-102 -98 l-40 -37 150 -144 c83 -80 153 -144 157 -142 4 1 72 64 152 140 96
91 150 136 158 131 7 -4 63 -56 123 -115 61 -59 123 -119 140 -133 l30 -26
-45 -46 c-25 -25 -71 -69 -103 -96 l-58 -51 -47 46 -46 47 49 51 50 50 -50 45
c-27 24 -53 43 -56 41 -3 -1 -50 -43 -103 -93 l-96 -91 92 -90 c51 -50 120
-115 153 -146 l60 -55 136 129 c75 71 142 136 149 144 14 17 31 4 217 -178
l103 -100 107 105 c60 58 128 124 153 146 l45 41 -35 36 c-19 20 -66 64 -103
97 l-68 61 -50 -49 -50 -49 46 -43 c25 -24 45 -46 45 -50 0 -5 -20 -27 -44
-51 l-45 -44 -101 94 -101 94 148 142 c82 79 150 143 153 143 3 0 72 -63 154
-141 l148 -140 26 23 c14 13 31 28 38 33 47 41 234 228 234 235 0 5 -44 49
-97 98 l-97 90 -48 -42 c-26 -22 -48 -46 -48 -52 0 -6 21 -30 46 -53 l47 -42
-44 -45 c-24 -24 -48 -44 -54 -44 -5 1 -53 41 -105 90 l-95 90 75 76 c41 41
109 107 151 145 l76 69 147 -141 c80 -77 150 -139 155 -137 12 4 90 76 208
191 l91 90 151 -144 152 -143 -83 -84 c-114 -115 -111 -114 -167 -58 l-46 47
48 46 49 46 -51 51 -51 51 -100 -100 -100 -100 147 -142 c82 -78 151 -142 154
-143 3 0 70 62 149 137 79 76 149 138 155 138 7 0 76 -62 155 -138 l143 -138
-84 -85 c-46 -47 -91 -89 -99 -94 -11 -6 -30 4 -65 35 l-50 44 50 50 49 51
-44 45 c-24 25 -49 45 -55 45 -6 0 -53 -43 -105 -95 l-94 -95 34 -36 c19 -20
87 -85 150 -144 l116 -108 54 51 c30 28 99 94 152 146 l97 94 115 -113 c63
-62 132 -127 152 -145 l37 -33 149 141 c81 78 148 144 148 147 0 6 -155 159
-183 180 -16 12 -23 8 -67 -35 l-50 -49 51 -45 50 -46 -50 -50 -51 -49 -94 89
c-51 50 -94 95 -95 101 -1 10 282 284 294 284 3 0 61 -54 128 -119 67 -66 134
-129 150 -141 l27 -21 150 143 151 143 -102 99 -101 98 -52 -51 -51 -51 50
-45 50 -44 -45 -46 c-25 -25 -50 -44 -57 -43 -6 2 -53 43 -103 93 l-92 89 104
100 c56 55 124 119 149 144 l46 44 104 -100 c130 -125 193 -181 199 -181 6 0
69 56 199 181 l104 100 46 -44 c25 -25 93 -89 149 -144 l104 -100 -92 -89
c-50 -50 -97 -91 -103 -93 -7 -1 -32 18 -57 43 l-45 46 49 45 50 45 -51 51
-51 51 -102 -99 -101 -99 151 -143 152 -143 31 27 c18 14 85 78 149 140 65 63
120 114 124 114 11 0 294 -274 293 -284 -1 -6 -44 -51 -95 -101 l-94 -89 -51
49 -50 50 50 46 51 45 -50 49 c-44 43 -51 47 -67 35 -28 -21 -183 -174 -183
-180 0 -3 67 -69 148 -147 l149 -141 37 33 c20 18 89 83 152 145 l115 113 97
-94 c53 -52 122 -118 152 -146 l54 -51 116 108 c63 59 131 124 150 144 l34 36
-94 95 c-52 52 -99 95 -105 95 -6 0 -31 -20 -55 -45 l-44 -45 49 -51 50 -50
-50 -44 c-35 -31 -54 -41 -65 -35 -8 5 -53 47 -99 94 l-84 85 143 138 c79 76
148 138 155 138 6 0 75 -61 153 -135 78 -74 146 -135 150 -135 5 0 75 63 156
140 l146 140 -100 100 -100 100 -51 -51 -51 -51 49 -46 48 -46 -46 -47 c-56
-56 -53 -57 -167 58 l-83 84 152 143 151 144 91 -90 c118 -115 196 -187 208
-191 5 -2 75 60 155 137 l147 141 76 -69 c42 -38 110 -104 151 -145 l75 -76
-95 -90 c-52 -49 -100 -89 -105 -90 -6 0 -30 20 -54 44 l-44 45 47 42 c25 23
46 47 46 53 0 6 -22 30 -48 52 l-48 42 -97 -90 c-53 -49 -97 -93 -97 -98 0 -7
187 -194 234 -235 7 -5 24 -20 38 -33 l26 -23 148 140 c82 78 151 141 154 141
3 0 72 -64 153 -143 l149 -142 -102 -94 -102 -94 -46 46 -46 47 47 48 47 48
-49 48 -50 49 -68 -61 c-37 -33 -84 -77 -103 -97 l-35 -36 45 -41 c25 -22 93
-88 153 -146 l107 -105 103 100 c56 56 124 121 152 146 l49 45 151 -143 150
-143 60 55 c33 31 102 96 153 146 l92 90 -96 91 c-53 50 -100 92 -103 93 -3 2
-28 -17 -56 -41 l-50 -45 50 -50 49 -51 -46 -47 -47 -46 -58 51 c-32 27 -78
71 -103 96 l-45 46 29 25 c16 14 83 77 148 141 65 63 123 114 127 112 5 -2 72
-64 151 -138 78 -74 145 -136 148 -137 4 -2 75 62 157 142 l150 144 -40 37
c-22 21 -68 65 -102 98 l-63 60 -50 -49 -50 -49 51 -52 51 -51 -49 -42 c-26
-22 -50 -41 -53 -41 -3 0 -49 41 -103 91 l-98 91 147 142 c81 77 150 141 154
141 4 0 73 -62 153 -138 80 -76 149 -138 152 -139 4 0 48 40 98 88 51 48 118
113 149 143 l57 55 113 -111 c62 -61 128 -123 146 -138 17 -15 32 -33 32 -40
0 -13 -181 -185 -194 -185 -3 0 -27 19 -52 42 l-45 41 51 52 51 52 -51 46 -52
47 -99 -92 c-54 -51 -99 -96 -99 -99 0 -10 288 -284 298 -284 5 0 73 61 151
135 78 74 146 136 151 138 5 2 74 -61 154 -139 117 -113 144 -145 135 -156 -7
-7 -52 -50 -101 -95 l-89 -81 -47 46 -46 47 49 50 50 51 -50 44 c-27 24 -52
44 -55 44 -3 0 -49 -42 -103 -93 l-99 -93 119 -115 c65 -63 134 -129 153 -145
l34 -31 151 143 151 144 151 -145 151 -144 149 141 c81 77 149 144 151 148 2
7 -180 183 -196 189 -4 1 -29 -19 -56 -44 l-49 -45 49 -50 48 -49 -46 -47 -46
-46 -103 94 -102 94 148 143 c81 78 151 142 154 142 4 0 73 -64 154 -141 l148
-142 37 34 c76 69 262 254 262 260 0 3 -44 47 -98 97 l-98 90 -47 -41 c-26
-23 -47 -47 -47 -52 0 -6 20 -31 45 -55 l45 -44 -47 -47 -47 -46 -98 90 c-54
50 -98 96 -98 103 0 7 8 19 19 26 10 7 76 68 146 136 l128 123 46 -43 c25 -23
93 -89 151 -145 l105 -102 152 145 153 146 150 -144 149 -143 -62 -63 c-34
-35 -79 -77 -100 -94 l-38 -30 -43 38 c-24 22 -45 43 -45 49 -1 5 19 30 44 55
l45 46 -50 49 -50 49 -73 -70 c-39 -39 -85 -83 -102 -98 l-30 -27 150 -144
c83 -80 153 -143 157 -142 4 1 73 64 153 140 103 99 149 136 159 130 7 -4 76
-68 151 -141 l138 -134 -64 -65 c-35 -35 -81 -78 -101 -94 l-38 -30 -47 45
-48 45 50 50 49 51 -44 45 c-24 25 -49 45 -54 45 -12 0 -190 -171 -194 -186
-3 -10 280 -289 292 -289 3 0 72 64 154 142 l150 143 124 -119 c67 -65 137
-129 153 -143 l30 -25 150 143 150 144 -45 46 c-25 25 -71 68 -103 96 l-58 51
-50 -49 -50 -49 45 -41 c25 -22 46 -45 46 -50 0 -5 -20 -29 -45 -54 l-44 -43
-93 88 c-51 49 -94 94 -96 100 -2 7 63 74 143 150 130 123 147 136 162 124 10
-8 67 -62 128 -121 60 -58 122 -116 137 -127 l27 -21 150 142 150 143 -47 48
c-26 27 -72 70 -103 97 l-55 49 -47 -45 c-26 -24 -47 -48 -47 -53 0 -5 21 -27
48 -49 l47 -41 -50 -50 -50 -50 -100 96 -99 97 148 143 149 143 41 -37 c23
-20 89 -82 147 -139 58 -57 110 -104 115 -104 10 0 54 40 201 183 l103 99 150
-143 151 -143 -83 -83 c-114 -116 -111 -115 -167 -59 l-46 47 48 46 49 46 -51
51 -51 51 -100 -100 -100 -100 146 -140 c81 -77 150 -141 154 -143 4 -1 73 60
153 138 80 77 150 140 154 140 4 -1 73 -64 153 -140 l145 -140 -95 -95 c-52
-52 -97 -95 -100 -95 -3 1 -27 21 -54 46 l-49 45 49 50 48 49 -44 45 c-25 25
-50 44 -57 43 -14 -4 -193 -177 -193 -188 0 -6 289 -285 295 -285 6 0 105 92
203 188 l102 100 0 97 0 96 -367 351 c-203 193 -384 368 -403 388 l-35 36 35
31 c19 17 89 83 155 147 148 142 491 470 562 535 l53 49 -1 101 0 101 -150
144 -149 143 -98 -90 c-53 -50 -122 -116 -152 -147 l-55 -56 75 -72 c41 -40
88 -83 103 -96 l27 -25 45 44 c25 24 45 49 45 56 0 6 -21 31 -47 54 l-46 43
47 44 c26 23 50 43 53 43 11 0 188 -175 188 -185 0 -5 -64 -72 -143 -149
l-144 -138 -41 38 c-23 21 -90 85 -148 143 -59 57 -111 102 -117 100 -6 -2
-76 -67 -157 -144 l-148 -140 103 -98 103 -99 51 52 51 51 -47 44 c-27 24 -48
46 -48 50 0 4 21 27 47 50 l47 44 96 -91 c52 -50 96 -94 98 -97 1 -4 -65 -70
-146 -148 l-148 -141 -45 41 c-24 23 -92 88 -151 145 l-108 104 -152 -145
-152 -145 -148 140 c-81 77 -148 143 -148 147 0 3 44 47 97 98 l98 92 48 -47
47 -46 -47 -48 -48 -48 50 -50 50 -49 103 97 103 97 -150 143 c-83 79 -155
142 -160 140 -6 -2 -50 -41 -98 -88 -48 -46 -114 -109 -145 -138 l-57 -55
-151 144 -151 144 98 92 c54 51 101 91 104 90 3 -1 27 -20 53 -41 l47 -40 -51
-51 -50 -51 50 -49 50 -49 53 50 c28 28 73 70 100 94 26 24 47 47 47 50 0 4
-67 72 -150 150 l-150 142 -145 -139 c-80 -76 -149 -139 -154 -141 -5 -2 -75
60 -156 137 l-148 140 -31 -26 c-55 -46 -266 -253 -266 -261 0 -5 43 -50 95
-102 l96 -93 27 25 c15 14 37 34 50 44 12 10 22 23 22 28 0 6 -21 29 -48 53
l-47 42 45 46 c24 25 49 45 55 45 6 0 52 -42 103 -93 l92 -92 -113 -110 c-61
-61 -129 -125 -149 -144 l-36 -33 -147 141 c-81 77 -150 141 -154 141 -4 0
-74 -64 -155 -142 l-148 -143 100 -99 100 -99 53 51 54 50 -48 42 c-26 23 -47
48 -47 55 0 7 21 32 47 54 l46 41 96 -92 c53 -51 97 -96 99 -99 2 -4 -10 -17
-25 -29 -15 -12 -80 -73 -145 -136 -65 -63 -122 -114 -128 -114 -6 0 -77 63
-157 140 l-147 141 -65 -63 c-36 -35 -104 -100 -151 -145 l-85 -83 -150 145
-150 145 100 95 99 95 48 -47 48 -47 -45 -46 c-25 -25 -45 -49 -45 -52 0 -4
21 -27 47 -51 l47 -45 96 90 c52 50 95 96 95 103 0 16 -282 288 -294 283 -5
-1 -75 -65 -155 -141 l-146 -139 -151 143 -150 142 53 54 c29 30 75 73 101 95
l49 41 46 -46 46 -47 -47 -48 -47 -48 50 -49 49 -49 98 95 c54 51 99 96 101
99 1 3 -66 70 -148 149 l-151 143 -148 -141 c-82 -78 -153 -141 -158 -141 -5
0 -22 14 -39 31 -16 17 -82 80 -146 141 l-118 110 -147 -142 c-82 -77 -148
-144 -148 -148 0 -4 44 -49 98 -101 l98 -95 50 51 51 50 -49 46 -48 46 45 45
c24 26 48 46 53 46 4 0 51 -41 103 -92 l95 -91 -33 -35 c-18 -18 -86 -83 -150
-144 l-118 -110 -145 139 c-80 76 -149 139 -154 141 -11 4 -296 -269 -296
-283 0 -5 43 -51 95 -102 l95 -91 52 47 52 47 -50 50 -49 49 49 49 49 48 98
-96 99 -97 -150 -145 -149 -145 -86 83 c-47 46 -114 111 -150 146 l-66 62
-146 -140 c-80 -77 -151 -140 -157 -140 -12 0 -285 260 -289 275 -1 6 40 53
93 105 l96 94 49 -49 50 -49 -50 -51 -51 -52 54 -45 53 -46 98 96 98 97 -146
142 c-81 79 -150 143 -154 143 -5 0 -74 -63 -155 -141 l-147 -141 -118 110
c-64 61 -132 125 -150 144 l-32 34 94 92 c51 51 97 92 103 92 5 0 29 -20 53
-45 l44 -45 -49 -50 -49 -49 49 -43 c27 -24 52 -43 56 -43 4 0 51 42 103 94
l95 93 -136 132 c-75 72 -144 137 -153 143 -16 11 -36 -5 -166 -131 l-149
-143 -152 144 -153 145 -150 -143 c-82 -78 -150 -145 -150 -149 0 -4 17 -22
38 -40 20 -18 65 -60 99 -94 l63 -60 50 49 50 49 -45 46 c-25 25 -45 50 -44
55 0 6 21 27 45 49 l44 38 57 -50 c32 -28 77 -70 101 -94 l43 -44 -151 -143
-150 -143 -139 131 c-76 72 -144 138 -151 146 -10 12 -35 -7 -161 -128 -82
-78 -149 -146 -149 -152 0 -5 45 -51 99 -102 l98 -92 49 50 48 49 -47 48 -47
48 48 47 47 46 100 -93 100 -94 -25 -27 c-14 -15 -81 -80 -150 -145 l-125
-118 -90 85 c-50 47 -118 113 -152 146 l-62 61 -104 -102 c-57 -56 -125 -122
-152 -146 l-49 -44 -146 141 c-170 164 -166 133 -34 260 l81 77 46 -41 c26
-22 47 -45 47 -51 0 -6 -21 -30 -47 -54 l-48 -44 52 -51 53 -50 101 98 101 98
-148 142 c-82 79 -153 143 -158 143 -5 0 -54 -45 -110 -99 -56 -55 -121 -118
-146 -140 l-45 -40 -30 27 c-16 15 -75 71 -130 124 -55 54 -109 104 -120 112
-19 14 -16 19 75 110 52 53 99 96 105 96 6 0 31 -20 55 -46 l45 -45 -50 -44
c-57 -50 -56 -56 13 -113 l41 -34 98 96 98 95 -75 76 c-41 42 -109 108 -152
146 l-76 70 -147 -141 c-81 -77 -150 -140 -154 -140 -3 0 -71 62 -150 138 -79
75 -146 138 -150 139 -3 2 -73 -62 -156 -141 -134 -128 -148 -145 -136 -160 7
-9 53 -53 102 -97 l88 -80 46 42 c25 23 45 46 45 52 0 6 -20 32 -45 57 l-46
46 51 43 50 43 93 -87 c50 -48 92 -93 92 -100 0 -7 -64 -74 -143 -150 l-142
-137 -53 48 c-28 26 -97 91 -151 145 l-100 97 -154 -146 -154 -147 103 -97
104 -98 50 50 50 50 -48 48 -48 49 47 46 48 46 95 -91 c53 -50 97 -93 99 -97
1 -4 -65 -71 -146 -149 l-149 -141 -152 145 -151 146 -151 -146 -152 -145
-149 141 c-81 78 -147 145 -146 149 2 4 46 47 99 97 l95 91 48 -46 47 -46 -48
-49 -48 -48 50 -50 50 -50 104 98 103 97 -154 147 -154 146 -100 -97 c-54 -54
-123 -119 -151 -145 l-53 -48 -142 137 c-79 76 -143 143 -143 150 0 7 42 52
92 100 l93 87 51 -43 50 -42 -45 -46 c-25 -26 -46 -52 -46 -58 0 -6 20 -29 45
-52 l46 -42 88 80 c49 44 95 88 102 97 12 15 -2 32 -136 160 -83 79 -153 143
-156 141 -4 -1 -71 -64 -150 -139 -79 -76 -147 -138 -150 -138 -4 0 -73 63
-154 140 l-147 141 -76 -70 c-43 -38 -111 -104 -152 -146 l-75 -76 98 -95 99
-95 41 34 c68 56 69 62 12 112 l-50 44 45 45 c24 26 49 46 55 46 6 0 52 -42
103 -93 l94 -94 -114 -110 c-62 -61 -129 -124 -148 -141 l-36 -30 -44 39 c-24
22 -90 85 -147 140 -57 55 -107 99 -113 97 -5 -2 -75 -66 -156 -143 l-147
-139 102 -99 102 -98 52 51 52 50 -47 44 c-27 24 -48 48 -48 54 0 6 21 29 47
52 l47 41 98 -98 98 -98 -23 -20 c-12 -12 -78 -76 -147 -143 l-126 -121 -49
44 c-27 25 -95 91 -152 147 l-104 102 -62 -61 c-34 -33 -102 -99 -152 -146
l-90 -85 -125 118 c-69 65 -136 130 -150 145 l-25 27 100 94 100 93 47 -46 48
-47 -47 -48 -47 -48 48 -49 49 -50 98 92 c54 51 99 97 99 102 0 6 -67 74 -149
152 -126 121 -151 140 -161 128 -7 -8 -75 -74 -151 -146 l-139 -131 -150 143
-151 143 43 44 c24 24 69 66 101 94 l57 50 44 -38 c24 -22 45 -43 45 -49 1 -5
-19 -30 -44 -55 l-45 -46 50 -49 50 -49 63 60 c34 34 79 76 100 94 20 18 37
36 37 40 0 4 -68 71 -150 149 l-150 143 -153 -145 -152 -144 -149 143 c-130
126 -150 142 -166 131 -26 -18 -293 -278 -288 -280 2 -1 47 -44 100 -96 l97
-95 48 44 c26 24 49 47 51 51 2 3 -19 27 -45 52 l-48 46 45 46 c24 25 48 45
53 45 6 0 52 -41 103 -92 l94 -92 -22 -24 c-13 -13 -80 -78 -150 -144 l-128
-120 -147 141 c-81 78 -150 141 -155 141 -4 0 -73 -64 -154 -142 l-146 -143
98 -97 98 -96 53 46 54 45 -51 52 -50 51 50 49 49 49 96 -94 c53 -52 94 -99
93 -105 -4 -15 -277 -275 -289 -275 -6 0 -77 63 -157 140 l-146 140 -66 -62
c-36 -35 -103 -100 -150 -146 l-86 -82 -149 145 -150 144 99 97 98 96 49 -48
49 -49 -49 -49 -50 -50 52 -47 52 -47 95 91 c52 51 95 97 95 102 0 14 -285
287 -296 283 -5 -2 -74 -65 -154 -141 l-145 -139 -118 110 c-64 61 -132 126
-150 145 l-33 34 96 91 c53 51 99 92 103 92 4 0 28 -20 52 -46 l45 -45 -48
-46 -49 -46 51 -51 50 -50 93 89 c51 50 96 95 100 100 4 6 -60 75 -143 154
l-149 143 -118 -110 c-64 -61 -130 -124 -146 -141 -17 -17 -34 -31 -39 -31 -5
0 -76 63 -158 141 l-148 141 -151 -143 c-82 -79 -149 -146 -148 -149 2 -3 47
-48 101 -99 l98 -95 49 49 50 49 -47 48 -47 48 46 47 46 46 49 -41 c26 -22 72
-65 101 -95 l53 -54 -150 -142 -151 -143 -146 139 c-80 76 -150 140 -155 141
-12 5 -294 -267 -294 -283 0 -6 43 -52 95 -102 l96 -91 47 44 c26 25 47 48 47
52 0 3 -20 27 -45 52 l-45 46 48 47 48 47 99 -95 100 -95 -150 -145 -150 -145
-85 83 c-47 45 -115 110 -151 145 l-65 63 -147 -141 c-80 -77 -151 -140 -157
-140 -6 0 -61 49 -123 109 -61 60 -127 121 -145 136 -18 15 -32 30 -30 34 2 3
46 48 99 99 l96 92 46 -41 c26 -22 47 -47 47 -54 0 -7 -21 -32 -47 -55 l-48
-42 54 -50 53 -51 99 99 99 99 -63 63 c-34 35 -101 100 -149 144 l-88 80 -37
-32 c-21 -18 -89 -82 -151 -143 l-113 -110 -37 34 c-20 18 -88 83 -149 144
l-113 110 92 92 c51 51 97 93 103 93 6 0 31 -20 55 -45 l45 -46 -47 -42 c-27
-24 -48 -47 -48 -53 0 -5 10 -18 22 -28 13 -10 35 -30 50 -44 l27 -25 96 93
c52 52 95 97 95 102 0 8 -211 215 -266 261 l-31 26 -148 -140 c-81 -77 -151
-139 -156 -137 -5 2 -74 65 -154 141 l-145 139 -150 -142 c-83 -78 -150 -146
-150 -150 0 -3 21 -26 48 -50 26 -24 71 -66 99 -94 l53 -50 50 49 50 49 -50
51 -51 51 47 40 c26 21 50 40 53 41 3 2 50 -39 104 -90 l98 -92 -151 -143
-150 -144 -118 110 c-64 61 -130 124 -146 141 -17 17 -34 31 -39 31 -5 0 -76
-64 -159 -142 l-149 -143 103 -97 103 -97 50 49 50 50 -48 48 -47 48 47 46 48
47 98 -92 c53 -51 97 -95 97 -98 0 -4 -67 -70 -148 -147 l-148 -140 -152 145
-152 145 -108 -104 c-59 -57 -127 -122 -151 -145 l-45 -41 -148 141 c-81 78
-147 144 -146 148 2 3 46 47 98 97 l96 91 47 -44 c26 -23 47 -46 47 -50 0 -4
-21 -26 -47 -50 l-48 -44 51 -51 51 -52 103 99 103 98 -148 140 c-81 77 -151
142 -157 144 -6 2 -58 -43 -117 -100 -58 -58 -125 -122 -148 -143 l-41 -38
-144 138 c-79 77 -143 144 -143 149 0 10 177 185 188 185 3 0 27 -20 53 -43
l47 -44 -46 -43 c-26 -23 -47 -48 -47 -54 0 -7 20 -32 45 -56 l45 -44 27 25
c15 13 62 57 103 97 l75 73 -150 145 c-82 79 -152 144 -155 144 -3 -1 -71 -66
-152 -145z m2474 -720 c216 -207 394 -382 396 -389 2 -8 -10 -24 -25 -36 -15
-12 -78 -70 -138 -128 -157 -152 -520 -499 -583 -557 l-53 -48 -97 94 c-53 52
-194 186 -312 299 -118 113 -255 243 -303 290 l-89 86 229 219 c125 121 271
260 323 310 52 50 129 123 170 163 41 39 78 72 82 72 4 0 184 -169 400 -375z
m1935 275 c54 -52 233 -223 396 -380 l298 -284 -38 -37 c-222 -215 -765 -729
-771 -729 -4 0 -20 14 -37 31 -16 17 -196 189 -398 383 l-368 351 108 105 c60
58 199 191 308 295 110 105 240 229 290 277 49 49 95 87 102 85 6 -1 56 -45
110 -97z m2205 16 c46 -44 175 -168 288 -275 113 -107 254 -243 313 -301 l108
-106 -401 -383 -401 -383 -32 28 c-17 16 -186 177 -376 358 -191 181 -358 341
-374 355 l-27 26 401 383 c220 211 404 382 409 380 5 -2 46 -39 92 -82z m2192
27 c61 -57 186 -176 391 -372 265 -254 345 -332 345 -335 0 -2 -141 -138 -312
-302 -172 -164 -352 -336 -400 -383 l-87 -84 -68 63 c-216 202 -728 697 -731
706 -2 6 16 28 40 49 41 36 283 268 606 578 78 75 146 137 149 137 3 0 34 -26
67 -57z m2308 -80 c323 -310 565 -542 606 -578 24 -21 42 -43 40 -49 -3 -9
-515 -504 -731 -706 l-68 -63 -82 80 c-45 44 -225 216 -399 382 -175 167 -318
307 -318 312 0 4 6 12 14 16 7 4 112 103 232 218 384 369 428 411 489 468 33
31 63 57 67 57 4 0 72 -62 150 -137z m2478 -245 l400 -383 -28 -26 c-15 -14
-182 -174 -373 -355 -190 -181 -359 -342 -376 -358 l-32 -28 -401 383 -402
384 124 120 c68 66 216 208 328 315 113 107 237 225 275 262 39 37 73 68 78
68 4 0 187 -172 407 -382z m1917 292 c49 -47 178 -170 288 -275 110 -104 248
-237 308 -295 l108 -105 -368 -352 c-202 -193 -383 -365 -400 -383 -32 -32
-33 -32 -57 -13 -13 10 -195 182 -405 383 l-381 365 77 75 c43 41 184 176 313
300 129 123 273 262 320 307 47 46 90 82 97 81 6 -2 51 -41 100 -88z m2197 23
c39 -38 219 -209 400 -382 l328 -315 -88 -85 c-49 -48 -186 -178 -304 -291
-118 -113 -259 -247 -312 -299 l-97 -94 -53 48 c-51 48 -331 314 -608 580 -74
71 -136 134 -138 140 -1 6 64 73 145 150 81 77 259 247 395 378 137 130 252
237 255 237 4 0 38 -30 77 -67z m-16643 -505 l99 -92 -50 -51 -50 -51 50 -47
51 -46 -96 -93 c-53 -51 -100 -94 -104 -96 -3 -1 -49 41 -101 93 l-94 95 47
48 47 48 -50 49 -49 49 97 92 c53 51 98 93 100 94 2 0 48 -41 103 -92z m2225
-2 l99 -94 -47 -42 c-27 -23 -48 -46 -48 -51 0 -6 20 -29 45 -51 25 -23 45
-44 45 -48 0 -3 -44 -48 -99 -98 l-99 -91 -98 93 -99 94 47 49 48 48 -47 48
-48 47 95 95 c52 52 97 95 101 95 3 0 51 -42 105 -94z m2244 -21 l75 -77 -50
-44 -49 -44 49 -51 50 -51 -99 -93 -100 -94 -98 91 c-54 49 -98 93 -98 96 0 4
21 28 48 55 l47 48 -50 45 -50 44 98 96 98 95 27 -20 c15 -11 61 -54 102 -96z
m2200 21 c49 -49 90 -92 90 -95 0 -4 -20 -27 -45 -51 l-45 -44 47 -49 48 -48
-97 -95 -97 -96 -101 93 c-55 52 -100 97 -100 100 0 4 20 24 45 45 25 20 45
42 45 48 0 6 -21 31 -46 57 l-45 46 98 91 c54 51 101 91 105 89 4 -1 48 -42
98 -91z m2221 2 l99 -92 -50 -51 -51 -51 50 -47 49 -46 -99 -98 -99 -97 -99
98 -100 97 50 47 50 47 -51 50 -50 49 98 93 c53 50 98 92 100 93 2 0 48 -41
103 -92z m2222 1 l98 -92 -45 -46 c-25 -26 -46 -51 -46 -57 0 -6 20 -28 45
-48 25 -21 45 -41 45 -45 0 -3 -45 -48 -100 -100 l-101 -93 -97 96 -97 95 48
48 47 49 -45 44 c-25 24 -44 48 -42 53 3 11 180 187 187 187 3 0 49 -41 103
-91z m2257 -34 l65 -66 -50 -44 -50 -44 48 -48 c26 -27 47 -51 47 -55 0 -3
-44 -47 -98 -96 l-98 -91 -100 94 -99 93 50 51 49 51 -49 45 -50 44 98 96 97
96 38 -30 c20 -16 66 -59 102 -96z m2190 30 l95 -95 -48 -47 -47 -48 48 -48
47 -49 -99 -94 -98 -93 -99 91 c-55 50 -99 95 -99 98 0 4 20 25 45 48 25 22
45 45 45 51 0 5 -21 28 -47 51 l-48 42 98 94 c54 52 102 94 106 94 3 0 49 -43
101 -95z m2223 -1 l97 -90 -50 -49 -50 -49 47 -48 47 -48 -94 -95 c-52 -52
-98 -94 -101 -93 -4 2 -50 45 -104 96 l-98 93 52 47 52 47 -51 50 -51 50 98
92 c54 51 101 91 104 90 3 -1 49 -43 102 -93z"/>
<path d="M1920 2028 c-162 -154 -296 -284 -298 -288 -1 -3 95 -101 215 -216
120 -115 255 -244 301 -288 l82 -80 42 40 c24 21 88 82 143 135 251 239 324
308 373 355 l53 49 -300 288 c-165 158 -304 287 -308 287 -5 0 -141 -127 -303
-282z m678 -270 l22 -25 -195 -187 c-107 -103 -199 -186 -204 -184 -5 1 -60
50 -121 108 -61 58 -149 141 -196 185 l-86 80 79 75 c43 41 133 128 201 193
l123 118 177 -169 c97 -94 187 -181 200 -194z"/>
<path d="M4355 2232 c-44 -42 -178 -171 -299 -287 l-218 -209 84 -81 c46 -44
181 -173 300 -287 118 -115 219 -208 223 -208 4 0 57 49 118 108 62 59 166
159 232 222 66 63 151 145 188 181 l69 65 -297 285 c-164 156 -303 285 -309
287 -6 1 -47 -33 -91 -76z m290 -304 c55 -53 123 -117 150 -143 l50 -46 -195
-189 c-107 -105 -200 -189 -207 -188 -15 4 -387 358 -391 373 -1 6 23 35 55
65 32 29 121 114 198 187 l139 133 50 -47 c28 -27 96 -92 151 -145z"/>
<path d="M6550 2207 c-58 -56 -192 -186 -298 -287 l-193 -185 251 -240 c298
-285 353 -335 362 -332 6 2 276 260 502 478 l98 95 -113 110 c-250 243 -481
459 -492 462 -7 1 -59 -44 -117 -101z m265 -227 c61 -58 143 -137 182 -175
l73 -70 -202 -192 -202 -191 -198 190 c-109 105 -197 194 -196 198 2 3 91 90
198 192 188 180 196 186 215 170 11 -9 70 -64 130 -122z"/>
<path d="M8766 2202 c-160 -156 -352 -340 -419 -402 -32 -29 -56 -59 -55 -66
2 -10 264 -263 565 -547 l33 -31 77 74 c43 41 134 128 203 195 69 66 170 162
223 213 54 52 97 97 95 102 -2 4 -116 115 -253 246 -347 331 -339 324 -349
324 -5 0 -59 -49 -120 -108z m228 -180 c56 -54 145 -141 199 -193 l98 -94
-194 -185 c-108 -101 -200 -186 -205 -188 -6 -2 -99 81 -207 185 l-197 188
198 192 c110 106 201 193 203 193 2 0 49 -44 105 -98z"/>
<path d="M11060 2267 c-265 -250 -546 -521 -549 -530 -2 -6 4 -16 12 -22 9 -7
112 -104 229 -216 117 -112 246 -235 286 -273 l72 -70 33 31 c301 284 563 537
565 547 1 7 -23 37 -55 66 -67 62 -259 246 -419 402 -61 59 -115 108 -120 108
-5 0 -29 -19 -54 -43z m254 -340 l198 -192 -197 -188 c-108 -104 -201 -187
-207 -185 -5 2 -98 87 -205 188 l-194 185 188 181 c103 100 193 186 198 192 6
6 12 11 15 11 3 0 94 -86 204 -192z"/>
<path d="M13135 2128 c-104 -99 -239 -228 -299 -286 l-108 -106 98 -95 c236
-228 496 -476 504 -479 4 -1 65 52 136 120 125 119 359 343 437 418 l38 36
-300 287 c-165 158 -303 287 -308 287 -4 0 -93 -82 -198 -182z m474 -272 l125
-120 -200 -192 -199 -192 -65 61 c-36 34 -127 121 -202 193 l-138 131 202 192
201 191 76 -72 c42 -40 132 -127 200 -192z"/>
<path d="M15247 2023 l-299 -287 69 -65 c37 -36 122 -118 188 -181 66 -63 170
-163 232 -222 61 -59 114 -108 118 -108 6 0 276 256 529 500 l78 77 -296 284
c-164 156 -303 285 -309 286 -7 1 -146 -127 -310 -284z m557 -139 c81 -78 147
-146 145 -151 -6 -15 -379 -368 -392 -371 -7 -1 -100 83 -207 187 l-195 188
130 125 c72 68 161 154 200 190 l70 66 50 -46 c27 -25 117 -110 199 -188z"/>
<path d="M17470 2023 l-301 -287 33 -31 c18 -18 92 -87 163 -155 72 -68 177
-169 235 -224 58 -56 122 -116 143 -135 l37 -35 82 80 c46 44 181 173 301 288
120 115 216 213 215 216 -5 12 -593 570 -601 570 -4 0 -142 -129 -307 -287z
m445 -33 c61 -58 145 -139 188 -180 l78 -75 -53 -49 c-29 -27 -98 -93 -153
-145 -193 -185 -192 -184 -208 -175 -8 5 -99 90 -202 189 l-187 180 198 192
c164 157 202 189 214 180 8 -6 65 -59 125 -117z"/>
<path d="M0 2218 l0 -95 201 -194 201 -193 -73 -70 c-41 -38 -132 -125 -202
-193 l-128 -122 3 -95 3 -95 60 57 c398 379 521 499 529 510 6 10 -2 24 -25
46 -204 195 -511 487 -537 510 l-32 30 0 -96z"/>
<path d="M19700 2031 c-162 -155 -296 -288 -298 -296 -2 -7 6 -19 16 -27 11
-7 113 -103 228 -214 115 -110 241 -230 279 -266 l70 -66 3 95 3 95 -128 122
c-70 67 -161 153 -202 192 l-73 69 201 195 202 195 -3 94 -3 93 -295 -281z"/>
<path d="M1015 972 c-49 -49 -146 -142 -215 -207 -69 -66 -229 -219 -357 -342
l-232 -223 -98 0 -98 0 93 93 92 92 -93 93 c-51 50 -96 92 -100 92 -4 0 -7
-92 -7 -205 l0 -205 10000 0 10000 0 0 205 c0 113 -3 205 -7 205 -4 0 -49 -42
-100 -92 l-93 -93 92 -92 93 -93 -99 0 -98 0 -112 107 c-61 59 -154 148 -206
198 -52 51 -205 196 -338 325 l-244 233 -71 -70 c-40 -38 -180 -172 -312 -298
-132 -126 -285 -272 -340 -325 -188 -180 -171 -170 -275 -170 -50 0 -90 3 -90
6 0 4 41 46 91 93 l92 87 -103 97 -104 97 -95 -92 c-53 -51 -97 -96 -99 -100
-2 -4 35 -44 82 -89 47 -45 86 -85 86 -89 0 -5 -42 -8 -92 -9 l-93 -1 -95 93
c-162 157 -721 690 -765 729 l-42 37 -449 -429 -449 -430 -92 0 c-51 0 -93 4
-93 9 0 5 41 47 91 92 l91 84 -103 96 -103 96 -98 -90 c-54 -50 -98 -95 -98
-102 0 -6 38 -46 85 -89 47 -42 85 -82 85 -87 0 -6 -38 -9 -94 -8 l-94 2 -448
428 -448 428 -35 -31 c-20 -17 -222 -210 -449 -427 l-414 -396 -94 -2 c-52 -2
-94 1 -94 6 0 5 39 45 86 90 47 44 84 84 82 89 -1 5 -46 50 -99 100 l-96 91
-103 -97 -103 -98 91 -84 c51 -47 92 -88 92 -92 0 -5 -42 -8 -94 -8 l-93 0
-384 366 c-211 202 -414 396 -451 432 l-67 65 -223 -214 c-123 -118 -325 -312
-450 -432 l-227 -217 -90 0 c-50 0 -91 3 -91 7 0 4 38 46 85 93 l85 85 -99 99
-98 98 -102 -98 -102 -98 85 -85 c48 -48 86 -90 86 -94 0 -4 -41 -7 -91 -7
l-92 0 -126 122 c-153 148 -280 270 -559 537 l-213 204 -82 -80 c-45 -44 -248
-238 -450 -432 l-369 -351 -89 0 c-49 0 -89 3 -89 7 0 4 38 46 86 94 l85 85
-102 98 -102 98 -98 -98 -99 -99 92 -92 93 -93 -98 0 -98 0 -212 202 c-117
111 -306 293 -422 404 -115 111 -224 213 -240 227 l-31 25 -449 -429 -450
-429 -92 0 c-51 0 -93 3 -93 8 0 4 41 45 92 92 l91 84 -103 98 -104 97 -95
-91 c-53 -50 -98 -95 -99 -100 -2 -5 35 -45 82 -89 47 -45 86 -85 86 -89 0 -5
-42 -9 -92 -9 l-93 0 -431 412 c-237 226 -440 420 -451 429 -19 17 -32 6 -469
-412 l-449 -429 -92 -1 c-51 0 -93 4 -93 9 0 5 38 45 85 87 47 43 85 83 85 89
0 7 -44 52 -98 102 l-98 90 -103 -96 -103 -96 91 -84 c50 -45 91 -87 91 -92 0
-5 -42 -9 -93 -9 l-93 0 -400 381 c-219 210 -422 404 -450 431 l-52 50 -353
-338 c-195 -186 -397 -380 -450 -431 l-96 -93 -92 1 c-50 0 -91 4 -91 9 0 4
39 44 86 89 47 45 84 85 82 89 -2 4 -46 49 -99 100 l-95 92 -104 -97 -103 -97
92 -87 c50 -47 91 -89 91 -93 0 -3 -39 -6 -88 -6 -104 0 -100 -3 -242 135 -58
55 -159 153 -225 216 -66 63 -212 202 -324 309 -111 107 -206 196 -210 197 -3
2 -46 -37 -96 -85z m160 -169 c247 -232 615 -588 615 -595 0 -4 -41 -8 -91 -8
l-92 0 -174 167 c-97 93 -209 199 -249 236 l-74 69 -69 -64 c-38 -35 -150
-141 -250 -235 l-180 -173 -90 0 c-50 0 -91 4 -91 8 0 5 28 35 63 68 34 32
159 151 277 265 277 265 334 319 340 319 3 0 32 -26 65 -57z m2292 -65 c70
-68 175 -168 233 -224 255 -244 310 -298 310 -306 0 -4 -41 -8 -91 -8 l-90 0
-222 213 c-258 247 -269 257 -276 257 -3 0 -116 -106 -251 -235 l-245 -234
-93 -1 c-53 0 -92 4 -90 9 4 13 671 650 681 651 4 0 65 -55 134 -122z m2306
-80 c117 -111 271 -260 342 -330 l130 -129 -98 2 -98 2 -244 234 c-135 129
-249 233 -254 231 -4 -2 -117 -107 -250 -234 l-243 -231 -94 -2 c-52 -1 -94 1
-94 4 0 3 51 54 113 114 61 59 213 205 337 324 124 119 229 216 233 217 5 0
104 -91 220 -202z m2195 25 c406 -388 487 -466 490 -475 2 -4 -38 -8 -90 -8
l-93 0 -245 235 c-135 129 -249 234 -253 235 -4 0 -118 -106 -253 -235 l-244
-235 -98 0 -97 0 110 108 c61 59 164 159 230 222 67 63 171 163 232 223 61 59
115 107 119 107 3 0 90 -80 192 -177z m2101 115 c36 -35 158 -150 270 -258
112 -107 234 -224 272 -259 38 -35 69 -67 69 -72 0 -5 -41 -9 -91 -9 l-90 0
-82 77 c-45 42 -129 122 -186 177 -57 56 -112 108 -121 116 -9 8 -38 35 -63
59 l-46 44 -43 -38 c-24 -21 -88 -81 -143 -134 -55 -53 -148 -143 -206 -199
l-107 -102 -91 0 c-50 0 -91 4 -91 8 0 5 33 40 73 78 39 38 176 168 302 290
234 225 297 283 304 284 2 0 34 -28 70 -62z m2191 29 c58 -54 470 -446 558
-531 45 -44 82 -83 82 -88 0 -4 -41 -8 -91 -8 l-90 0 -200 191 c-110 106 -222
212 -250 237 l-50 44 -67 -63 c-37 -34 -110 -104 -162 -154 -52 -50 -134 -128
-182 -173 l-87 -82 -90 0 c-50 0 -91 4 -91 8 0 4 57 62 128 129 70 66 222 211
337 322 116 110 212 201 215 201 3 0 21 -15 40 -33z m2208 12 c15 -11 77 -69
137 -127 61 -59 201 -194 313 -301 111 -106 202 -198 202 -203 0 -5 -40 -8
-92 -7 l-91 2 -244 233 c-133 129 -246 234 -249 234 -4 0 -86 -76 -183 -168
-97 -92 -207 -198 -246 -235 l-70 -67 -92 0 c-51 0 -93 4 -93 9 0 4 20 26 44
47 45 40 383 362 541 516 50 48 92 88 93 88 2 0 16 -9 30 -21z m2299 -69 c160
-156 528 -506 556 -530 15 -13 27 -27 27 -32 0 -4 -42 -8 -93 -8 l-93 0 -244
232 c-133 128 -247 234 -251 236 -5 2 -119 -103 -255 -232 l-246 -236 -89 0
c-49 0 -89 3 -89 8 0 12 11 23 125 132 153 145 332 317 447 428 53 52 102 92
107 90 6 -1 50 -41 98 -88z m2197 23 c39 -37 168 -160 286 -274 118 -113 239
-228 268 -254 28 -26 52 -51 52 -56 0 -5 -41 -9 -90 -9 l-91 0 -72 67 c-40 37
-150 142 -245 233 -95 91 -177 166 -182 168 -5 2 -119 -103 -253 -232 l-245
-236 -91 0 c-50 0 -91 4 -91 8 0 5 87 92 193 193 105 101 246 236 312 301 115
112 165 157 174 158 3 0 36 -30 75 -67z m-17596 -559 c12 -10 22 -22 22 -26 0
-5 -41 -8 -92 -8 l-92 0 -47 46 -47 46 -50 -46 -49 -46 -92 0 c-50 0 -91 4
-91 8 0 5 15 22 33 37 17 16 81 76 140 133 l109 104 116 -114 c65 -63 127
-123 140 -134z m2240 -25 c2 -5 -39 -9 -90 -9 l-94 0 -44 45 -44 44 -52 -44
-52 -45 -94 0 -93 1 144 139 143 140 137 -131 c75 -72 138 -135 139 -140z
m2145 81 c42 -40 77 -78 77 -82 0 -5 -41 -8 -92 -7 l-92 2 -46 43 -45 42 -46
-42 -45 -43 -92 -2 c-53 -1 -92 2 -92 8 0 5 62 68 138 140 l137 130 60 -58
c33 -31 95 -90 138 -131z m2272 -49 l39 -41 -96 0 -96 0 -49 44 -50 45 -43
-45 -44 -44 -93 0 c-51 0 -93 3 -93 8 0 4 62 66 137 138 l138 131 105 -97 c58
-54 123 -117 145 -139z m2160 60 l100 -101 -92 0 -92 0 -52 46 -51 45 -48 -45
-49 -46 -91 0 c-49 0 -90 3 -90 6 0 3 62 66 138 139 l137 133 45 -39 c25 -20
90 -83 145 -138z m2173 48 c75 -72 139 -135 140 -140 2 -5 -38 -9 -89 -9 l-93
0 -46 45 -46 45 -49 -44 -50 -43 -95 -1 -95 -1 140 139 c77 76 141 139 143
139 2 1 65 -58 140 -130z m2295 -69 c37 -35 67 -66 67 -70 0 -4 -42 -8 -92 -9
l-93 -2 -44 45 -44 45 -50 -45 -49 -44 -97 0 -96 1 144 140 144 139 71 -68
c39 -38 101 -97 139 -132z m2293 -71 c3 -5 -38 -9 -91 -9 l-96 0 -48 45 -47
44 -44 -44 -44 -45 -93 0 c-51 0 -93 3 -93 8 -1 4 61 66 137 138 l138 132 138
-131 c76 -71 140 -134 143 -138z m2119 99 l110 -108 -94 0 -94 0 -52 44 -52
45 -44 -45 -43 -44 -93 0 c-51 0 -93 3 -93 8 0 4 62 66 137 139 l138 131 35
-31 c19 -18 84 -80 145 -139z"/>
</g>
</svg>
